<?xml version="1.0" encoding="utf-8"?>
<!-- Generator: Adobe Illustrator 15.0.0, SVG Export Plug-In . SVG Version: 6.00 Build 0)  -->
<!DOCTYPE svg PUBLIC "-//W3C//DTD SVG 1.1//EN" "http://www.w3.org/Graphics/SVG/1.1/DTD/svg11.dtd">
<svg version="1.1" id="Layer_1" xmlns="http://www.w3.org/2000/svg" xmlns:xlink="http://www.w3.org/1999/xlink" x="0px" y="0px"
	 width="469.388px" height="146.941px" viewBox="0 0 469.388 146.941" enable-background="new 0 0 469.388 146.941"
	 xml:space="preserve">
<rect x="103.388" y="97.62" fill="#ED1F24" width="360" height="42.52"/>
<g>
	<rect x="104.431" y="99.63" fill="none" width="357.912" height="38.5"/>
	<path fill="#FFFFFF" d="M118.643,109.352h-5.745l0.529-2.268h8.58l-4.309,19.258h-2.835L118.643,109.352z M123.972,102.188
		c-0.302,1.296-1.587,2.268-2.91,2.268s-2.154-0.972-1.852-2.268c0.265-1.296,1.55-2.268,2.873-2.268
		S124.236,100.893,123.972,102.188z"/>
	<path fill="#FFFFFF" d="M141.701,126.341h-2.835l2.154-9.683c0.718-3.24,1.323-6.515,1.248-9.575h2.721l-0.151,3.528
		c1.928-2.268,4.914-3.923,7.749-3.923c3.212,0,4.233,2.808,3.515,6.083l-3.023,13.57h-2.835l2.835-12.778
		c0.416-1.836,1.058-4.607-1.437-4.607c-2.683,0-6.652,2.592-8.164,9.359L141.701,126.341z"/>
	<path fill="#FFFFFF" d="M200.896,116.73c1.663-7.451,6.387-10.042,10.243-10.042c7.144,0,6.501,6.911,5.82,10.042
		c-1.663,7.451-6.387,10.007-10.28,10.007C203.163,126.737,199.157,124.505,200.896,116.73z M214.124,116.73
		c0.719-3.312,0.945-7.775-3.477-7.775c-4.422,0-6.199,4.463-6.917,7.775c-0.756,3.312-0.982,7.739,3.439,7.739
		C211.592,124.47,213.368,120.042,214.124,116.73z"/>
	<path fill="#FFFFFF" d="M232.42,126.341h-2.835l2.154-9.683c0.718-3.24,1.323-6.515,1.247-9.575h2.722l-0.151,3.528
		c1.928-2.268,4.914-3.923,7.748-3.923c3.213,0,4.233,2.808,3.516,6.083l-3.023,13.57h-2.836l2.836-12.778
		c0.415-1.836,1.058-4.607-1.438-4.607c-2.683,0-6.651,2.592-8.163,9.359L232.42,126.341z"/>
	<path fill="#FFFFFF" d="M263.755,117.415c-1.058,5.291,1.059,7.055,4.157,7.055c2.23,0,4.688-0.972,6.766-2.052l0.681,2.412
		c-2.759,1.08-5.367,1.908-8.164,1.908c-5.972,0-7.257-4.896-6.161-9.899c1.135-5.039,4.725-10.15,10.772-10.15
		c6.728,0,6.123,7.163,5.707,9.25l-0.302,1.476H263.755z M274.868,115.146c0.604-3.167-0.605-6.191-3.779-6.191
		c-3.176,0-5.254,2.304-6.879,6.191H274.868z"/>
	<path fill="#FFFFFF" d="M326.616,108.848c2.041-1.44,3.1-2.16,5.443-2.16c3.553,0,7.559,2.591,5.857,10.15
		c-1.625,7.307-7.181,9.899-10.432,9.899c-1.662,0-2.797-0.396-4.082-1.116l-1.813,8.099h-2.835l4.385-19.545
		c0.566-2.448,0.945-4.896,0.643-7.235l2.721-0.324L326.616,108.848z M324.008,122.886c0.945,0.864,2.117,1.584,3.516,1.584
		c3.325,0,6.463-2.736,7.596-7.739c1.398-6.299-1.738-7.775-3.59-7.775c-2.306,0-3.893,1.583-5.141,3.348L324.008,122.886z"/>
	<path fill="#FFFFFF" d="M361.92,101.9h-5.744l0.528-2.268h8.58l-5.972,26.708h-2.835L361.92,101.9z"/>
	<path fill="#FFFFFF" d="M394.125,112.591c0.491-2.124-0.529-3.635-2.646-3.635c-1.776,0-3.628,0.792-5.405,1.44l-0.113-2.376
		c2.079-0.72,4.007-1.332,6.123-1.332c3.855,0,5.519,3.023,4.801,6.227l-1.853,8.351c-0.378,1.764-0.529,3.563-0.303,5.219
		l-2.721,0.324l-0.189-2.412c-1.7,1.548-3.401,2.34-5.519,2.34c-3.854,0-5.366-2.88-4.61-6.299c0.831-3.708,3.931-6.947,8.013-6.947
		c1.512,0,2.835,0.432,4.007,0.936L394.125,112.591z M393.218,116.694c-1.096-0.504-2.306-0.936-3.666-0.936
		c-2.872,0-4.535,2.375-5.064,4.823c-0.416,1.8,0.113,3.888,2.306,3.888s3.893-1.764,5.442-3.312v-0.072L393.218,116.694z"/>
	<path fill="#FFFFFF" d="M427.2,123.209c-2.494,2.088-4.838,3.528-7.975,3.528c-3.742,0-8.24-2.196-6.539-9.827
		c1.701-7.703,6.841-10.223,10.885-10.223c3.326,0,5.292,1.728,6.501,4.283l-2.797,1.548c-0.604-1.944-1.7-3.563-4.195-3.563
		c-2.872,0-6.236,2.016-7.521,7.703c-1.322,6.011,1.513,7.811,4.12,7.811c2.23,0,4.347-1.62,6.048-3.168L427.2,123.209z"/>
	<path fill="#FFFFFF" d="M445.194,117.415c-1.059,5.291,1.059,7.055,4.158,7.055c2.229,0,4.687-0.972,6.765-2.052l0.681,2.412
		c-2.759,1.08-5.367,1.908-8.164,1.908c-5.972,0-7.257-4.896-6.16-9.899c1.134-5.039,4.724-10.15,10.771-10.15
		c6.728,0,6.123,7.163,5.707,9.25l-0.303,1.476H445.194z M456.306,115.146c0.604-3.167-0.604-6.191-3.779-6.191
		s-5.254,2.304-6.879,6.191H456.306z"/>
</g>
<g>
	<rect x="178.67" y="53.696" fill="none" width="283.673" height="36.734"/>
	<path fill="#00AEEF" d="M195.373,66.657c0.468-2.124-0.504-3.635-2.52-3.635c-1.692,0-3.456,0.792-5.147,1.44l-0.108-2.376
		c1.98-0.72,3.815-1.332,5.832-1.332c3.671,0,5.255,3.023,4.571,6.227l-1.764,8.351c-0.36,1.764-0.504,3.563-0.288,5.219
		l-2.592,0.324l-0.18-2.412c-1.62,1.548-3.24,2.34-5.255,2.34c-3.672,0-5.111-2.88-4.392-6.299c0.792-3.708,3.744-6.947,7.631-6.947
		c1.44,0,2.7,0.432,3.816,0.936L195.373,66.657z M194.508,70.76c-1.044-0.504-2.196-0.936-3.491-0.936
		c-2.736,0-4.32,2.375-4.824,4.823c-0.396,1.8,0.108,3.888,2.196,3.888s3.708-1.764,5.184-3.312v-0.072L194.508,70.76z"/>
	<path fill="#00AEEF" d="M206.965,80.407h-2.7l2.052-9.683c0.684-3.24,1.26-6.515,1.188-9.575h2.592l-0.144,3.528
		c1.836-2.268,4.68-3.923,7.38-3.923c3.059,0,4.031,2.808,3.348,6.083l-2.881,13.57H215.1l2.699-12.778
		c0.396-1.836,1.008-4.607-1.367-4.607c-2.556,0-6.335,2.592-7.775,9.359L206.965,80.407z"/>
	<path fill="#00AEEF" d="M237.6,80.803l-0.145-2.16c-1.908,1.44-2.916,2.16-5.147,2.16c-3.384,0-7.163-2.592-5.543-10.151
		c1.548-7.343,6.767-9.898,9.898-9.898c1.62,0,2.664,0.396,3.815,1.116l1.764-8.171h2.7l-4.212,19.833
		c-0.504,2.375-0.791,4.751-0.504,6.947L237.6,80.803z M239.903,64.605c-0.863-0.864-1.907-1.583-3.275-1.583
		c-2.879,0-6.083,2.412-7.199,7.739c-1.332,6.263,1.62,7.775,3.42,7.775c2.088,0,3.707-1.548,4.824-3.312L239.903,64.605z"/>
	<path fill="#00AEEF" d="M270.325,67.125c0.539-2.628,0.575-4.355,0.575-6.371h2.7l0.035,1.728c1.368-1.008,2.52-1.728,4.141-1.728
		c1.764,0,2.159,0.432,2.915,1.764c1.332-1.008,2.483-1.8,4.067-1.8c2.592,0,3.888,1.692,3.348,4.283l-3.275,15.406h-2.699
		l3.275-15.406c0.287-1.296-0.252-2.016-1.332-2.016c-1.225,0-2.484,1.008-3.275,2.016l-3.275,15.406h-2.7l3.239-15.19
		c0.217-1.008,0.18-2.196-1.043-2.196c-1.297,0-2.844,1.152-3.6,2.34l-3.204,15.046h-2.7L270.325,67.125z"/>
	<path fill="#00AEEF" d="M303.371,66.657c0.468-2.124-0.505-3.635-2.521-3.635c-1.691,0-3.455,0.792-5.146,1.44l-0.108-2.376
		c1.979-0.72,3.815-1.332,5.831-1.332c3.672,0,5.256,3.023,4.572,6.227l-1.764,8.351c-0.36,1.764-0.504,3.563-0.289,5.219
		l-2.592,0.324l-0.18-2.412c-1.619,1.548-3.239,2.34-5.255,2.34c-3.672,0-5.111-2.88-4.392-6.299
		c0.792-3.708,3.744-6.947,7.631-6.947c1.439,0,2.699,0.432,3.816,0.936L303.371,66.657z M302.506,70.76
		c-1.044-0.504-2.195-0.936-3.491-0.936c-2.735,0-4.319,2.375-4.823,4.823c-0.396,1.8,0.107,3.888,2.195,3.888
		s3.707-1.764,5.184-3.312v-0.072L302.506,70.76z"/>
	<path fill="#00AEEF" d="M328.498,63.417h-6.875l-2.34,10.979c-0.396,1.872-0.828,4.14,1.62,4.14c2.051,0,3.672-1.692,4.787-3.384
		l2.447,0.648c-1.871,2.771-4.535,5.003-7.774,5.003c-3.132,0-4.788-1.512-3.563-7.271l2.123-10.115h-4.139l0.504-2.268h4.139
		l1.26-5.903h2.7l-1.26,5.903h6.875L328.498,63.417z"/>
	<path fill="#00AEEF" d="M337.607,71.48c-1.009,5.291,1.008,7.055,3.96,7.055c2.123,0,4.463-0.972,6.442-2.052l0.647,2.412
		c-2.627,1.08-5.111,1.908-7.774,1.908c-5.688,0-6.911-4.896-5.867-9.899c1.079-5.039,4.499-10.15,10.259-10.15
		c6.407,0,5.831,7.163,5.436,9.25l-0.289,1.476H337.607z M348.19,69.212c0.575-3.167-0.576-6.191-3.6-6.191
		s-5.004,2.304-6.552,6.191H348.19z"/>
	<path fill="#00AEEF" d="M359.819,80.407h-2.7l2.34-11.051c0.684-3.167,0.972-5.795,1.008-8.207h2.628l-0.181,3.672
		c1.944-2.268,3.96-4.067,6.84-4.067c3.599,0,3.707,3.527,3.095,6.443h-2.699c0.252-1.44,1.044-4.175-1.008-4.175
		c-1.979,0-6.299,2.952-7.631,9.359L359.819,80.407z"/>
	<path fill="#00AEEF" d="M386.601,63.417h-5.472l0.505-2.268h8.171l-4.104,19.258h-2.7L386.601,63.417z M391.676,56.254
		c-0.288,1.296-1.512,2.268-2.771,2.268s-2.052-0.972-1.764-2.268c0.252-1.296,1.476-2.268,2.735-2.268
		S391.928,54.958,391.676,56.254z"/>
	<path fill="#00AEEF" d="M411.369,66.657c0.468-2.124-0.504-3.635-2.52-3.635c-1.692,0-3.456,0.792-5.147,1.44l-0.108-2.376
		c1.979-0.72,3.815-1.332,5.831-1.332c3.672,0,5.256,3.023,4.571,6.227l-1.764,8.351c-0.359,1.764-0.504,3.563-0.288,5.219
		l-2.591,0.324l-0.181-2.412c-1.619,1.548-3.239,2.34-5.255,2.34c-3.672,0-5.111-2.88-4.392-6.299
		c0.792-3.708,3.743-6.947,7.631-6.947c1.44,0,2.7,0.432,3.815,0.936L411.369,66.657z M410.504,70.76
		c-1.044-0.504-2.195-0.936-3.491-0.936c-2.736,0-4.319,2.375-4.823,4.823c-0.396,1.8,0.107,3.888,2.195,3.888
		s3.708-1.764,5.184-3.312v-0.072L410.504,70.76z"/>
	<path fill="#00AEEF" d="M431.096,55.966h-5.472l0.504-2.268h8.172l-5.688,26.708h-2.7L431.096,55.966z"/>
	<path fill="#00AEEF" d="M456.62,65.181c-1.296-1.08-2.736-2.16-4.68-2.16c-1.62,0-3.384,1.188-3.779,2.916
		c-0.396,1.872,1.655,2.808,3.023,3.348c2.771,1.116,5.688,2.375,4.859,6.191c-0.684,3.167-3.995,5.327-6.983,5.327
		c-2.915,0-5.507-1.44-7.234-3.348l1.943-2.16c1.188,1.62,3.312,3.24,5.579,3.24c1.8,0,3.563-1.008,3.96-2.952
		c0.54-2.52-1.332-3.204-3.132-3.959c-2.52-1.044-5.399-2.34-4.68-5.795c0.612-2.808,3.672-5.075,7.02-5.075
		c2.411,0,4.14,0.864,5.759,2.231L456.62,65.181z"/>
</g>
<g>
	<rect x="8.139" y="7.961" fill="none" width="454.204" height="36.734"/>
	<path fill="#00AEEF" d="M20.738,23.982l0.504-2.268h8.819l-2.88,13.462h-2.7l0.54-2.52c-1.692,1.62-3.852,2.52-5.975,2.52
		c-2.088,0-7.739-0.36-5.076-12.886c2.196-10.259,6.12-14.039,11.159-14.039c4.392,0,5.795,3.096,5.003,7.127h-2.7
		c0.72-2.376,0.108-4.859-2.627-4.859c-5.399,0-7.235,7.523-8.063,11.375c-0.756,3.6-2.16,11.015,2.916,11.015
		c2.52,0,5.759-2.016,6.839-7.199l0.36-1.728H20.738z"/>
	<path fill="#00AEEF" d="M37.478,25.746c-1.008,5.291,1.008,7.055,3.959,7.055c2.124,0,4.463-0.972,6.443-2.052l0.648,2.412
		c-2.627,1.08-5.111,1.908-7.775,1.908c-5.688,0-6.911-4.896-5.867-9.899c1.08-5.039,4.5-10.15,10.259-10.15
		c6.407,0,5.831,7.163,5.435,9.25l-0.288,1.476H37.478z M48.061,23.478c0.576-3.167-0.576-6.191-3.6-6.191s-5.003,2.304-6.551,6.191
		H48.061z"/>
	<path fill="#00AEEF" d="M71.568,17.683h-6.875l-2.34,10.979c-0.396,1.872-0.828,4.14,1.62,4.14c2.052,0,3.672-1.692,4.788-3.384
		l2.448,0.648c-1.872,2.771-4.536,5.003-7.775,5.003c-3.132,0-4.788-1.512-3.564-7.271l2.124-10.115h-4.14l0.504-2.268h4.14
		l1.26-5.903h2.7l-1.26,5.903h6.875L71.568,17.683z"/>
	<path fill="#00AEEF" d="M111.24,20.922c0.468-2.124-0.504-3.635-2.52-3.635c-1.692,0-3.456,0.792-5.147,1.44l-0.108-2.376
		c1.98-0.72,3.815-1.332,5.832-1.332c3.671,0,5.255,3.023,4.571,6.227l-1.764,8.351c-0.36,1.764-0.504,3.563-0.288,5.219
		l-2.592,0.324l-0.18-2.412c-1.62,1.548-3.24,2.34-5.255,2.34c-3.672,0-5.111-2.88-4.392-6.299c0.792-3.708,3.744-6.947,7.631-6.947
		c1.44,0,2.7,0.432,3.816,0.936L111.24,20.922z M110.375,25.026c-1.044-0.504-2.196-0.936-3.491-0.936
		c-2.736,0-4.32,2.375-4.824,4.823c-0.396,1.8,0.108,3.888,2.196,3.888s3.708-1.764,5.184-3.312v-0.072L110.375,25.026z"/>
	<path fill="#00AEEF" d="M130.967,10.232h-5.471L126,7.964h8.171l-5.687,26.708h-2.7L130.967,10.232z"/>
	<path fill="#00AEEF" d="M152.567,10.232h-5.471l0.504-2.268h8.171l-5.687,26.708h-2.7L152.567,10.232z"/>
	<path fill="#00AEEF" d="M197.638,20.922c0.468-2.124-0.504-3.635-2.52-3.635c-1.692,0-3.456,0.792-5.147,1.44l-0.108-2.376
		c1.98-0.72,3.815-1.332,5.832-1.332c3.671,0,5.255,3.023,4.571,6.227l-1.764,8.351c-0.36,1.764-0.504,3.563-0.288,5.219
		l-2.592,0.324l-0.18-2.412c-1.62,1.548-3.24,2.34-5.255,2.34c-3.672,0-5.111-2.88-4.392-6.299c0.792-3.708,3.744-6.947,7.631-6.947
		c1.44,0,2.7,0.432,3.816,0.936L197.638,20.922z M196.774,25.026c-1.044-0.504-2.196-0.936-3.491-0.936
		c-2.736,0-4.32,2.375-4.824,4.823c-0.396,1.8,0.108,3.888,2.196,3.888s3.708-1.764,5.184-3.312v-0.072L196.774,25.026z"/>
	<path fill="#00AEEF" d="M209.231,34.673h-2.7l2.052-9.683c0.684-3.24,1.26-6.515,1.188-9.575h2.591l-0.144,3.528
		c1.836-2.268,4.68-3.923,7.38-3.923c3.059,0,4.031,2.808,3.347,6.083l-2.88,13.57h-2.699l2.699-12.778
		c0.396-1.836,1.008-4.607-1.367-4.607c-2.556,0-6.336,2.592-7.775,9.359L209.231,34.673z"/>
	<path fill="#00AEEF" d="M230.831,34.673h-2.7l2.052-9.683c0.685-3.24,1.26-6.515,1.188-9.575h2.592l-0.145,3.528
		c1.836-2.268,4.68-3.923,7.379-3.923c3.06,0,4.032,2.808,3.348,6.083l-2.879,13.57h-2.7l2.7-12.778
		c0.396-1.836,1.008-4.607-1.368-4.607c-2.556,0-6.335,2.592-7.775,9.359L230.831,34.673z"/>
	<path fill="#00AEEF" d="M251.207,25.062c1.583-7.451,6.083-10.042,9.755-10.042c6.803,0,6.19,6.911,5.543,10.042
		c-1.584,7.451-6.083,10.007-9.791,10.007C253.366,35.069,249.55,32.837,251.207,25.062z M263.804,25.062
		c0.685-3.312,0.9-7.775-3.312-7.775c-4.211,0-5.903,4.463-6.587,7.775c-0.72,3.312-0.936,7.739,3.275,7.739
		C261.393,32.801,263.084,28.374,263.804,25.062z"/>
	<path fill="#00AEEF" d="M286.376,15.415h2.699l-1.979,9.323c-0.72,3.347-1.368,6.659-1.296,9.935h-2.556l0.18-3.708
		c-1.728,2.124-4.715,4.104-7.199,4.104c-3.419,0-4.247-2.916-3.527-6.263l2.844-13.391h2.699l-2.699,12.599
		c-0.396,1.8-1.008,4.788,1.368,4.788c2.663,0,6.371-2.988,7.774-9.503L286.376,15.415z"/>
	<path fill="#00AEEF" d="M295.629,34.673h-2.7l2.052-9.683c0.685-3.24,1.26-6.515,1.188-9.575h2.592l-0.145,3.528
		c1.836-2.268,4.68-3.923,7.379-3.923c3.06,0,4.032,2.808,3.348,6.083l-2.879,13.57h-2.7l2.7-12.778
		c0.396-1.836,1.008-4.607-1.368-4.607c-2.556,0-6.335,2.592-7.775,9.359L295.629,34.673z"/>
	<path fill="#00AEEF" d="M329.935,31.541c-2.376,2.088-4.607,3.528-7.595,3.528c-3.563,0-7.847-2.196-6.228-9.827
		c1.62-7.703,6.516-10.223,10.367-10.223c3.167,0,5.039,1.728,6.191,4.283l-2.664,1.548c-0.576-1.944-1.62-3.563-3.995-3.563
		c-2.736,0-5.939,2.016-7.163,7.703c-1.261,6.011,1.439,7.811,3.923,7.811c2.124,0,4.14-1.62,5.76-3.168L329.935,31.541z"/>
	<path fill="#00AEEF" d="M339.873,25.746c-1.008,5.291,1.008,7.055,3.959,7.055c2.124,0,4.464-0.972,6.443-2.052l0.648,2.412
		c-2.628,1.08-5.111,1.908-7.775,1.908c-5.688,0-6.911-4.896-5.867-9.899c1.08-5.039,4.499-10.15,10.259-10.15
		c6.407,0,5.831,7.163,5.436,9.25l-0.288,1.476H339.873z M350.455,23.478c0.576-3.167-0.575-6.191-3.6-6.191
		c-3.023,0-5.003,2.304-6.551,6.191H350.455z"/>
	<path fill="#00AEEF" d="M358.988,21.391c0.54-2.628,0.576-4.355,0.576-6.371h2.7l0.036,1.728c1.367-1.008,2.52-1.728,4.139-1.728
		c1.764,0,2.16,0.432,2.916,1.764c1.332-1.008,2.483-1.8,4.067-1.8c2.592,0,3.888,1.692,3.348,4.283l-3.275,15.406h-2.7
		l3.276-15.406c0.287-1.295-0.252-2.016-1.332-2.016c-1.224,0-2.484,1.008-3.275,2.016l-3.276,15.406h-2.699l3.239-15.19
		c0.216-1.008,0.181-2.196-1.044-2.196c-1.296,0-2.844,1.152-3.6,2.34l-3.203,15.046h-2.7L358.988,21.391z"/>
	<path fill="#00AEEF" d="M383.072,25.746c-1.008,5.291,1.008,7.055,3.959,7.055c2.124,0,4.464-0.972,6.443-2.052l0.648,2.412
		c-2.628,1.08-5.111,1.908-7.775,1.908c-5.688,0-6.911-4.896-5.867-9.899c1.08-5.039,4.499-10.15,10.259-10.15
		c6.407,0,5.831,7.163,5.436,9.25l-0.288,1.476H383.072z M393.654,23.478c0.576-3.167-0.575-6.191-3.6-6.191
		c-3.023,0-5.003,2.304-6.551,6.191H393.654z"/>
	<path fill="#00AEEF" d="M403.627,34.673h-2.7l2.052-9.683c0.685-3.24,1.26-6.515,1.188-9.575h2.592l-0.145,3.528
		c1.836-2.268,4.68-3.923,7.379-3.923c3.06,0,4.032,2.808,3.348,6.083l-2.879,13.57h-2.7l2.7-12.778
		c0.396-1.836,1.008-4.607-1.368-4.607c-2.556,0-6.335,2.592-7.775,9.359L403.627,34.673z"/>
	<path fill="#00AEEF" d="M438.761,17.683h-6.875l-2.34,10.979c-0.396,1.872-0.828,4.14,1.62,4.14c2.052,0,3.671-1.692,4.787-3.384
		l2.447,0.648c-1.871,2.771-4.535,5.003-7.774,5.003c-3.132,0-4.788-1.512-3.563-7.271l2.123-10.115h-4.139l0.504-2.268h4.139
		l1.26-5.903h2.7l-1.26,5.903h6.875L438.761,17.683z"/>
	<path fill="#00AEEF" d="M458.885,19.447c-1.296-1.08-2.736-2.16-4.68-2.16c-1.62,0-3.384,1.188-3.779,2.916
		c-0.396,1.872,1.655,2.808,3.023,3.348c2.771,1.116,5.688,2.375,4.859,6.191c-0.684,3.167-3.995,5.327-6.983,5.327
		c-2.915,0-5.507-1.44-7.234-3.348l1.943-2.16c1.188,1.62,3.312,3.24,5.579,3.24c1.8,0,3.563-1.008,3.96-2.952
		c0.54-2.52-1.332-3.204-3.132-3.959c-2.52-1.044-5.399-2.34-4.68-5.795c0.612-2.808,3.672-5.075,7.02-5.075
		c2.411,0,4.14,0.864,5.759,2.231L458.885,19.447z"/>
</g>
</svg>
