<svg version="1.1" id="Layer_1" xmlns="http://www.w3.org/2000/svg" xmlns:xlink="http://www.w3.org/1999/xlink" x="0px" y="0px"
	 width="469.388px" height="96.939px" viewBox="0 0 469.388 96.939" enable-background="new 0 0 469.388 96.939"
	 xml:space="preserve">
<g>
	<rect x="93.405" y="55.082" fill="none" width="283.672" height="36.734"/>
	<path fill="#EF4136" d="M201.977,55.084h2.7l-2.196,10.223c1.764-1.836,4.104-3.167,6.479-3.167c2.304,0,4.787,0.72,3.132,8.603
		l-2.34,11.051h-2.7l2.412-11.267c0.36-1.764,1.296-6.119-1.152-6.119c-2.016,0-4.211,1.8-5.399,3.492
		c-1.512,2.16-1.908,4.319-2.412,6.731l-1.512,7.163h-2.7L201.977,55.084z"/>
	<path fill="#EF4136" d="M221.381,72.866c-1.008,5.291,1.008,7.055,3.959,7.055c2.124,0,4.464-0.972,6.443-2.052l0.648,2.412
		c-2.628,1.08-5.111,1.908-7.775,1.908c-5.688,0-6.911-4.896-5.867-9.899c1.08-5.039,4.5-10.15,10.259-10.15
		c6.407,0,5.831,7.163,5.435,9.25l-0.287,1.476H221.381z M231.963,70.598c0.576-3.167-0.576-6.191-3.6-6.191
		s-5.003,2.304-6.551,6.191H231.963z"/>
	<path fill="#EF4136" d="M243.592,81.793h-2.699l2.34-11.051c0.684-3.167,0.972-5.795,1.008-8.207h2.627l-0.18,3.672
		c1.943-2.268,3.96-4.067,6.84-4.067c3.6,0,3.707,3.527,3.096,6.443h-2.7c0.252-1.44,1.044-4.175-1.008-4.175
		c-1.979,0-6.3,2.952-7.631,9.359L243.592,81.793z"/>
	<path fill="#EF4136" d="M264.581,72.866c-1.008,5.291,1.008,7.055,3.959,7.055c2.124,0,4.464-0.972,6.443-2.052l0.648,2.412
		c-2.628,1.08-5.111,1.908-7.775,1.908c-5.688,0-6.911-4.896-5.867-9.899c1.08-5.039,4.5-10.15,10.259-10.15
		c6.407,0,5.831,7.163,5.435,9.25l-0.287,1.476H264.581z M275.163,70.598c0.576-3.167-0.576-6.191-3.6-6.191
		s-5.003,2.304-6.551,6.191H275.163z"/>
</g>
<g>
	<rect x="8.139" y="7.979" fill="none" width="454.204" height="36.734"/>
	<path fill="#EF4136" d="M42.643,24l0.504-2.268h8.819l-2.88,13.462h-2.7l0.54-2.52c-1.692,1.62-3.852,2.52-5.975,2.52
		c-2.088,0-7.739-0.36-5.076-12.886C38.071,12.05,41.995,8.27,47.034,8.27c4.392,0,5.795,3.096,5.003,7.127h-2.7
		c0.72-2.376,0.108-4.859-2.627-4.859c-5.399,0-7.235,7.523-8.063,11.375c-0.756,3.6-2.16,11.015,2.916,11.015
		c2.52,0,5.759-2.016,6.839-7.199L48.762,24H42.643z"/>
	<path fill="#EF4136" d="M59.383,25.764c-1.008,5.291,1.008,7.055,3.959,7.055c2.124,0,4.463-0.972,6.443-2.052l0.648,2.412
		c-2.627,1.08-5.111,1.908-7.775,1.908c-5.688,0-6.911-4.896-5.867-9.899c1.08-5.039,4.5-10.15,10.259-10.15
		c6.407,0,5.831,7.163,5.435,9.25l-0.288,1.476H59.383z M69.966,23.496c0.576-3.167-0.576-6.191-3.6-6.191s-5.003,2.304-6.551,6.191
		H69.966z"/>
	<path fill="#EF4136" d="M93.473,17.701h-6.875l-2.34,10.979c-0.396,1.872-0.828,4.14,1.62,4.14c2.052,0,3.672-1.692,4.788-3.384
		l2.448,0.648c-1.872,2.771-4.536,5.003-7.775,5.003c-3.132,0-4.788-1.512-3.564-7.271l2.124-10.115h-4.14l0.504-2.268h4.14
		l1.26-5.903h2.7l-1.26,5.903h6.875L93.473,17.701z"/>
	<path fill="#EF4136" d="M136.672,17.701h-6.875l-2.34,10.979c-0.396,1.872-0.828,4.14,1.62,4.14c2.052,0,3.672-1.692,4.788-3.384
		l2.448,0.648c-1.872,2.771-4.536,5.003-7.775,5.003c-3.132,0-4.788-1.512-3.564-7.271l2.124-10.115h-4.14l0.504-2.268h4.14
		l1.26-5.903h2.7l-1.26,5.903h6.875L136.672,17.701z"/>
	<path fill="#EF4136" d="M147.977,7.982h2.7l-2.196,10.223c1.764-1.836,4.104-3.167,6.479-3.167c2.304,0,4.787,0.72,3.131,8.603
		l-2.339,11.051h-2.7l2.412-11.267c0.36-1.764,1.296-6.119-1.152-6.119c-2.016,0-4.211,1.8-5.399,3.492
		c-1.512,2.16-1.908,4.319-2.412,6.731l-1.512,7.163h-2.7L147.977,7.982z"/>
	<path fill="#EF4136" d="M167.381,25.764c-1.008,5.291,1.008,7.055,3.959,7.055c2.124,0,4.463-0.972,6.443-2.052l0.648,2.412
		c-2.627,1.08-5.111,1.908-7.775,1.908c-5.688,0-6.911-4.896-5.867-9.899c1.08-5.039,4.5-10.15,10.259-10.15
		c6.407,0,5.831,7.163,5.435,9.25l-0.288,1.476H167.381z M177.964,23.496c0.576-3.167-0.576-6.191-3.6-6.191
		s-5.003,2.304-6.551,6.191H177.964z"/>
	<path fill="#EF4136" d="M219.543,20.94c0.468-2.124-0.504-3.635-2.52-3.635c-1.692,0-3.456,0.792-5.148,1.44l-0.107-2.376
		c1.98-0.72,3.815-1.332,5.832-1.332c3.671,0,5.255,3.023,4.57,6.227l-1.764,8.351c-0.359,1.764-0.504,3.563-0.287,5.219
		l-2.592,0.324l-0.18-2.412c-1.621,1.548-3.24,2.34-5.256,2.34c-3.672,0-5.111-2.88-4.392-6.299
		c0.792-3.708,3.744-6.947,7.631-6.947c1.44,0,2.7,0.432,3.815,0.936L219.543,20.94z M218.679,25.044
		c-1.044-0.504-2.196-0.936-3.491-0.936c-2.736,0-4.32,2.375-4.824,4.823c-0.396,1.8,0.108,3.888,2.196,3.888
		s3.708-1.764,5.184-3.312v-0.072L218.679,25.044z"/>
	<path fill="#EF4136" d="M231.136,34.691h-2.7l2.052-9.683c0.685-3.24,1.26-6.515,1.188-9.575h2.592l-0.145,3.528
		c1.836-2.268,4.68-3.923,7.379-3.923c3.06,0,4.032,2.808,3.348,6.083l-2.879,13.57h-2.7l2.7-12.778
		c0.396-1.836,1.008-4.607-1.368-4.607c-2.556,0-6.335,2.592-7.775,9.359L231.136,34.691z"/>
	<path fill="#EF4136" d="M261.771,35.087l-0.145-2.16c-1.907,1.44-2.916,2.16-5.147,2.16c-3.384,0-7.163-2.592-5.543-10.151
		c1.548-7.343,6.767-9.898,9.898-9.898c1.62,0,2.664,0.396,3.815,1.116l1.764-8.171h2.7l-4.212,19.833
		c-0.504,2.375-0.792,4.751-0.504,6.947L261.771,35.087z M264.075,18.889c-0.864-0.864-1.908-1.583-3.276-1.583
		c-2.879,0-6.083,2.412-7.199,7.739c-1.331,6.263,1.62,7.775,3.42,7.775c2.088,0,3.708-1.548,4.823-3.312L264.075,18.889z"/>
	<path fill="#EF4136" d="M275.991,34.691h-2.699l2.34-11.051c0.684-3.167,0.972-5.795,1.008-8.207h2.628l-0.181,3.672
		c1.944-2.268,3.96-4.067,6.84-4.067c3.599,0,3.707,3.527,3.095,6.443h-2.699c0.252-1.44,1.044-4.175-1.008-4.175
		c-1.979,0-6.299,2.952-7.631,9.359L275.991,34.691z"/>
	<path fill="#EF4136" d="M294.711,25.08c1.583-7.451,6.083-10.042,9.755-10.042c6.803,0,6.19,6.911,5.543,10.042
		c-1.584,7.451-6.083,10.007-9.791,10.007C296.871,35.087,293.055,32.855,294.711,25.08z M307.309,25.08
		c0.685-3.312,0.9-7.775-3.312-7.775c-4.211,0-5.903,4.463-6.587,7.775c-0.72,3.312-0.936,7.739,3.275,7.739
		C304.898,32.819,306.589,28.392,307.309,25.08z"/>
	<path fill="#EF4136" d="M324.374,17.701h-5.472l0.505-2.268h8.171l-4.104,19.258h-2.7L324.374,17.701z M329.449,10.538
		c-0.288,1.296-1.512,2.268-2.771,2.268s-2.052-0.972-1.764-2.268c0.252-1.296,1.476-2.268,2.735-2.268
		S329.701,9.242,329.449,10.538z"/>
	<path fill="#EF4136" d="M348.169,35.087l-0.145-2.16c-1.907,1.44-2.916,2.16-5.147,2.16c-3.384,0-7.163-2.592-5.543-10.151
		c1.548-7.343,6.767-9.898,9.898-9.898c1.62,0,2.664,0.396,3.815,1.116l1.764-8.171h2.7L351.3,27.816
		c-0.504,2.375-0.792,4.751-0.504,6.947L348.169,35.087z M350.473,18.889c-0.864-0.864-1.908-1.583-3.276-1.583
		c-2.879,0-6.083,2.412-7.199,7.739c-1.331,6.263,1.62,7.775,3.42,7.775c2.088,0,3.708-1.548,4.823-3.312L350.473,18.889z"/>
	<path fill="#EF4136" d="M392.34,20.94c0.468-2.124-0.504-3.635-2.52-3.635c-1.692,0-3.456,0.792-5.147,1.44l-0.108-2.376
		c1.979-0.72,3.815-1.332,5.831-1.332c3.672,0,5.256,3.023,4.571,6.227l-1.764,8.351c-0.359,1.764-0.504,3.563-0.288,5.219
		l-2.591,0.324l-0.181-2.412c-1.619,1.548-3.239,2.34-5.255,2.34c-3.672,0-5.111-2.88-4.392-6.299
		c0.792-3.708,3.743-6.947,7.631-6.947c1.44,0,2.7,0.432,3.815,0.936L392.34,20.94z M391.476,25.044
		c-1.044-0.504-2.195-0.936-3.491-0.936c-2.736,0-4.319,2.375-4.823,4.823c-0.396,1.8,0.107,3.888,2.195,3.888
		s3.708-1.764,5.184-3.312v-0.072L391.476,25.044z"/>
	<path fill="#EF4136" d="M407.245,17.197c1.943-1.44,2.951-2.16,5.184-2.16c3.383,0,7.199,2.591,5.579,10.15
		c-1.548,7.307-6.839,9.899-9.935,9.899c-1.584,0-2.664-0.396-3.888-1.116l-1.728,8.099h-2.7l4.176-19.545
		c0.54-2.448,0.899-4.896,0.611-7.235l2.592-0.324L407.245,17.197z M404.761,31.235c0.899,0.864,2.016,1.584,3.348,1.584
		c3.167,0,6.154-2.736,7.234-7.739c1.332-6.299-1.655-7.775-3.419-7.775c-2.196,0-3.708,1.583-4.896,3.348L404.761,31.235z"/>
	<path fill="#EF4136" d="M428.844,17.197c1.943-1.44,2.951-2.16,5.184-2.16c3.383,0,7.199,2.591,5.579,10.15
		c-1.548,7.307-6.839,9.899-9.935,9.899c-1.584,0-2.664-0.396-3.888-1.116l-1.728,8.099h-2.7l4.176-19.545
		c0.54-2.448,0.899-4.896,0.611-7.235l2.592-0.324L428.844,17.197z M426.361,31.235c0.899,0.864,2.016,1.584,3.348,1.584
		c3.167,0,6.154-2.736,7.234-7.739c1.332-6.299-1.655-7.775-3.419-7.775c-2.196,0-3.708,1.583-4.896,3.348L426.361,31.235z"/>
</g>
</svg>
