<svg preserveAspectRatio="none" version="1.1" id="Layer_1" xmlns="http://www.w3.org/2000/svg" xmlns:xlink="http://www.w3.org/1999/xlink" x="0px" y="0px"
	 width="100%" height="100%" viewBox="0 0 1360 1362" enable-background="new 0 0 1360 1362" xml:space="preserve">
<linearGradient id="SVGID_2_" gradientUnits="userSpaceOnUse" x1="0" y1="681" x2="1361" y2="681">
	<stop  offset="0" style="stop-color:#00CFBF"/>
	<stop  offset="0.3005" style="stop-color:#00D9E8"/>
	<stop  offset="0.6642" style="stop-color:#00CBFF"/>
	<stop  offset="1" style="stop-color:#0099E8"/>
</linearGradient>
<rect fill="url(#SVGID_2_)" width="1361" height="1362"/>
<g>
	<g>
		<path fill="#FFFFFF" d="M526.708,277.427c1.422,0,2.399,0,3.375,0c34.101,0,68.202,0.016,102.303-0.04
			c1.957-0.003,2.945,0.434,3.66,2.443c16.688,46.901,28.569,94.992,35.732,144.242c3.468,23.84,5.849,47.796,6.832,71.879
			c0.012,0.288,0.1,0.572,0.59,0.92c0.133-1.126,0.335-2.249,0.388-3.379c1.946-41.907,7.392-83.358,16.066-124.398
			c6.323-29.916,14.413-59.343,24.086-88.347c0.83-2.488,1.836-3.395,4.545-3.387c33.801,0.102,67.602,0.067,101.402,0.067
			c1.075,0,2.151,0,3.67,0c-27.535,80.905-41.638,163.707-42.334,249.545c98.565-60.469,196.646-120.64,295.078-181.027
			c0.091,1.17,0.212,1.996,0.213,2.823c0.01,35.101-0.011,70.202,0.058,105.303c0.004,1.978-0.589,3.004-2.328,3.927
			c-45.162,23.949-90.294,47.954-135.43,71.953c-1.119,0.595-2.223,1.22-3.657,2.008c12.146,6.607,23.888,13.009,35.643,19.386
			c34.405,18.664,68.811,37.327,103.239,55.95c1.611,0.871,2.548,1.668,2.543,3.79c-0.085,35.301-0.06,70.602-0.065,105.903
			c0,0.673-0.062,1.347-0.12,2.53c-98.396-60.469-196.474-120.743-295.152-181.386c0.819,85.134,14.932,167.445,42.31,247.928
			c-1.397,0-2.362,0-3.327,0c-34.001,0-68.002-0.031-102.003,0.065c-2.477,0.007-3.427-0.814-4.182-3.06
			c-14.954-44.498-25.924-89.956-32.799-136.387c-3.778-25.515-6.382-51.157-7.463-76.941c-0.043-1.034-0.267-2.061-0.725-3.034
			c-0.685,9.435-1.317,18.874-2.063,28.304c-2.288,28.915-6.492,57.563-12.246,85.981c-7.043,34.784-16.529,68.895-28.392,102.348
			c-0.702,1.98-1.494,2.786-3.731,2.781c-34.301-0.081-68.602-0.056-102.903-0.062c-0.787,0-1.574-0.071-2.769-0.128
			c28.733-80.2,43.468-162.702,44.363-248.276c-97.957,60.096-195.407,119.881-293.215,179.885
			c-0.094-1.164-0.219-1.986-0.219-2.808c-0.01-35.101,0.01-70.202-0.057-105.303c-0.004-1.972,0.576-3.008,2.319-3.932
			c45.162-23.949,90.294-47.954,135.43-71.953c1.122-0.597,2.23-1.222,3.667-2.011c-12.141-6.604-23.883-13.006-35.638-19.383
			c-34.406-18.665-68.812-37.328-103.24-55.952c-1.607-0.87-2.555-1.66-2.55-3.786c0.085-35.301,0.06-70.602,0.065-105.903
			c0-0.676,0.061-1.352,0.118-2.539c97.795,60.101,195.274,120.007,293.293,180.245
			C570.052,439.251,555.308,357.284,526.708,277.427z"/>
	</g>
</g>
<g>
	<path fill="#FFFFFF" d="M369.95,1080.357l-6.998-19.288h-48.818l-7.169,19.288h-27.652l44.039-113.851h30.383l43.868,113.851
		H369.95z M338.543,990.744l-17.752,48.989h35.504L338.543,990.744z"/>
	<path fill="#FFFFFF" d="M486.702,1080.357l-6.998-19.288h-48.818l-7.169,19.288h-27.652l44.039-113.851h30.383l43.868,113.851
		H486.702z M455.295,990.744l-17.752,48.989h35.504L455.295,990.744z"/>
	<path fill="#FFFFFF" d="M519.305,1034.953v-68.447h24.58v67.594c0,15.874,9.217,26.799,26.799,26.799
		c17.581,0,26.628-10.924,26.628-26.799v-67.594h24.75v68.277c0,28.334-16.728,47.623-51.378,47.623
		C536.033,1082.406,519.305,1062.947,519.305,1034.953z"/>
	<path fill="#FFFFFF" d="M644.421,1080.357V966.506h53.256c24.75,0,38.235,16.728,38.235,36.699c0,19.8-13.655,36.699-38.235,36.699
		h-29.018v40.454H644.421z M711.162,1003.205c0-9.559-7.169-15.362-16.728-15.362h-25.774v30.724h25.774
		C703.993,1018.567,711.162,1012.592,711.162,1003.205z"/>
	<path fill="#FFFFFF" d="M750.933,1034.953v-68.447h24.58v67.594c0,15.874,9.217,26.799,26.799,26.799
		c17.581,0,26.628-10.924,26.628-26.799v-67.594h24.751v68.277c0,28.334-16.728,47.623-51.378,47.623
		C767.66,1082.406,750.933,1062.947,750.933,1034.953z"/>
	<path fill="#FFFFFF" d="M868.367,1064.312l13.143-18.435c8.022,8.364,20.483,15.362,36.187,15.362c13.314,0,19.8-6.145,19.8-12.631
		c0-20.142-65.546-6.316-65.546-49.159c0-18.947,16.386-34.651,43.185-34.651c18.093,0,33.114,5.462,44.38,15.874l-13.484,17.752
		c-9.217-8.535-21.508-12.461-33.114-12.461c-10.412,0-16.216,4.609-16.216,11.436c0,18.093,65.375,5.974,65.375,48.477
		c0,20.824-14.85,36.528-45.575,36.528C894.654,1082.406,878.95,1075.066,868.367,1064.312z"/>
	<path fill="#FFFFFF" d="M1056.468,1080.357v-47.794H1002.7v47.794h-24.238V966.506h24.238v44.721h53.768v-44.721h24.409v113.851
		H1056.468z"/>
</g>
</svg>
