<svg preserveAspectRatio="none" version="1.1" id="Layer_1" xmlns="http://www.w3.org/2000/svg" xmlns:xlink="http://www.w3.org/1999/xlink" x="0px" y="0px"
	 width="100%" height="100%" viewBox="0 0 2897 690" enable-background="new 0 0 2897 690" xml:space="preserve">
<g>
	<g>
		<defs>
			<path id="SVGID_1_" d="M339.939,204.26c0.785,0,1.324,0,1.863,0c18.817,0,37.634,0.009,56.451-0.022
				c1.08-0.002,1.625,0.24,2.02,1.348c9.209,25.88,15.764,52.417,19.717,79.593c1.913,13.155,3.228,26.374,3.77,39.663
				c0.006,0.159,0.055,0.316,0.326,0.508c0.073-0.621,0.185-1.241,0.214-1.865c1.074-23.124,4.079-45.997,8.865-68.643
				c3.489-16.508,7.953-32.745,13.291-48.75c0.458-1.373,1.013-1.873,2.508-1.869c18.651,0.056,37.303,0.037,55.954,0.037
				c0.593,0,1.187,0,2.025,0c-15.194,44.643-22.976,90.333-23.36,137.699c54.388-33.367,108.509-66.569,162.824-99.891
				c0.05,0.646,0.117,1.102,0.117,1.558c0.005,19.369-0.006,38.737,0.032,58.106c0.002,1.092-0.325,1.658-1.285,2.167
				c-24.92,13.215-49.824,26.461-74.73,39.704c-0.618,0.328-1.226,0.673-2.018,1.108c6.702,3.646,13.181,7.179,19.668,10.697
				c18.985,10.299,37.97,20.597,56.967,30.873c0.889,0.481,1.406,0.921,1.403,2.091c-0.047,19.479-0.033,38.958-0.036,58.437
				c0,0.372-0.034,0.743-0.066,1.396c-54.295-33.367-108.414-66.626-162.865-100.089c0.452,46.977,8.24,92.396,23.347,136.807
				c-0.771,0-1.303,0-1.836,0c-18.762,0-37.523-0.017-56.285,0.036c-1.367,0.004-1.891-0.449-2.308-1.689
				c-8.252-24.554-14.305-49.638-18.098-75.258c-2.085-14.079-3.522-28.228-4.118-42.456c-0.024-0.571-0.147-1.138-0.4-1.674
				c-0.378,5.206-0.727,10.415-1.138,15.618c-1.263,15.955-3.582,31.763-6.757,47.445c-3.886,19.194-9.12,38.016-15.667,56.476
				c-0.388,1.093-0.825,1.537-2.059,1.534c-18.927-0.045-37.854-0.031-56.782-0.034c-0.434,0-0.868-0.039-1.528-0.071
				c15.855-44.255,23.985-89.779,24.48-136.999c-54.053,33.161-107.826,66.15-161.796,99.261c-0.052-0.642-0.121-1.096-0.121-1.55
				c-0.005-19.369,0.006-38.737-0.032-58.106c-0.002-1.088,0.318-1.66,1.28-2.17c24.921-13.215,49.824-26.461,74.73-39.703
				c0.619-0.329,1.23-0.674,2.023-1.11c-6.699-3.644-13.179-7.177-19.665-10.695c-18.985-10.299-37.971-20.598-56.968-30.874
				c-0.887-0.48-1.41-0.916-1.407-2.089c0.047-19.479,0.033-38.958,0.036-58.437c0-0.373,0.034-0.746,0.065-1.401
				c53.964,33.163,107.752,66.22,161.839,99.459C363.856,293.555,355.72,248.326,339.939,204.26z"/>
		</defs>
		<clipPath id="SVGID_2_">
			<use xlink:href="#SVGID_1_"  overflow="visible"/>
		</clipPath>
		<linearGradient id="SVGID_3_" gradientUnits="userSpaceOnUse" x1="203" y1="344.5" x2="647" y2="344.5">
			<stop  offset="0" style="stop-color:#00CFBF"/>
			<stop  offset="0.3005" style="stop-color:#00D9E8"/>
			<stop  offset="0.6642" style="stop-color:#00CBFF"/>
			<stop  offset="1" style="stop-color:#0099E8"/>
		</linearGradient>
		<rect x="203" y="204" clip-path="url(#SVGID_2_)" fill="url(#SVGID_3_)" width="444" height="281"/>
	</g>
	<g>
		<defs>
			<text id="SVGID_4_" transform="matrix(1 0 0 1 762.5205 486.0101)" font-family="'ProximaNova-Bold'" font-size="421.669">AAUPUSH</text>
		</defs>
		<clipPath id="SVGID_5_">
			<use xlink:href="#SVGID_4_"  overflow="visible"/>
		</clipPath>
		<linearGradient id="SVGID_6_" gradientUnits="userSpaceOnUse" x1="738" y1="351.5" x2="2785" y2="351.5">
			<stop  offset="0" style="stop-color:#00CFBF"/>
			<stop  offset="0.3005" style="stop-color:#00D9E8"/>
			<stop  offset="0.6642" style="stop-color:#00CBFF"/>
			<stop  offset="1" style="stop-color:#0099E8"/>
		</linearGradient>
		<rect x="738" y="199" clip-path="url(#SVGID_5_)" fill="url(#SVGID_6_)" width="2047" height="305"/>
	</g>
</g>
<g>
	<rect y="-254" fill="#00CFBF" width="253" height="254"/>
	<rect x="253" y="-254" fill="#00D9E8" width="255" height="254"/>
	<rect x="508" y="-254" fill="#00CBFF" width="255" height="254"/>
	<rect x="763" y="-254" fill="#0099E8" width="253" height="254"/>
</g>
</svg>
