<svg preserveAspectRatio="none" version="1.1" id="Layer_1" xmlns="http://www.w3.org/2000/svg" xmlns:xlink="http://www.w3.org/1999/xlink" x="0px" y="0px"
	 width="100%" height="100%" viewBox="0 0 1571.681 1000" enable-background="new 0 0 1571.681 1000" xml:space="preserve">
<g>
	<defs>
		<path id="SVGID_1_" d="M486.468,3.332c2.777,0,4.685,0,6.592,0c66.598,0,133.195,0.031,199.793-0.079
			c3.821-0.006,5.752,0.848,7.148,4.771c32.591,91.596,55.794,185.516,69.784,281.699c6.772,46.559,11.424,93.344,13.342,140.376
			c0.023,0.562,0.195,1.117,1.152,1.797c0.259-2.2,0.655-4.393,0.757-6.6c3.801-81.842,14.436-162.795,31.377-242.944
			c12.349-58.425,28.147-115.894,47.039-172.537c1.621-4.859,3.586-6.63,8.876-6.614c66.011,0.199,132.023,0.13,198.035,0.13
			c2.1,0,4.2,0,7.167,0c-53.774,158.004-81.318,319.713-82.676,487.352c192.494-118.093,384.041-235.605,576.276-353.539
			c0.179,2.285,0.415,3.899,0.415,5.513c0.018,68.551-0.021,137.102,0.113,205.652c0.007,3.863-1.151,5.867-4.547,7.668
			c-88.199,46.771-176.34,93.653-264.488,140.521c-2.186,1.162-4.341,2.382-7.141,3.922c23.721,12.904,46.652,25.407,69.61,37.861
			c67.192,36.451,134.386,72.898,201.621,109.268c3.146,1.702,4.977,3.258,4.967,7.402c-0.166,68.941-0.117,137.882-0.127,206.824
			c0,1.315-0.121,2.63-0.235,4.942c-192.163-118.094-383.706-235.806-576.42-354.239c1.6,166.263,29.162,327.014,82.63,484.193
			c-2.729,0-4.613,0-6.497,0c-66.402,0-132.805-0.061-199.207,0.127c-4.837,0.014-6.693-1.59-8.167-5.977
			c-29.204-86.904-50.628-175.68-64.055-266.358c-7.378-49.83-12.464-99.908-14.574-150.262c-0.085-2.02-0.521-4.026-1.417-5.926
			c-1.337,18.426-2.572,36.86-4.029,55.276c-4.469,56.469-12.679,112.417-23.916,167.918
			c-13.754,67.932-32.28,134.55-55.448,199.882c-1.372,3.868-2.918,5.441-7.287,5.431c-66.988-0.159-133.976-0.109-200.965-0.12
			c-1.537,0-3.074-0.138-5.407-0.25c56.115-156.628,84.89-317.751,86.639-484.873C381.894,628.904,191.577,745.662,0.563,862.848
			c-0.184-2.272-0.427-3.879-0.428-5.485c-0.019-68.551,0.02-137.102-0.112-205.652c-0.007-3.851,1.124-5.874,4.529-7.68
			c88.2-46.771,176.341-93.653,264.489-140.52c2.192-1.165,4.354-2.386,7.161-3.927c-23.711-12.898-46.642-25.4-69.599-37.853
			C139.41,425.279,72.216,388.83,4.98,352.458c-3.139-1.698-4.99-3.242-4.98-7.393c0.167-68.941,0.118-137.882,0.127-206.824
			c0-1.321,0.12-2.641,0.231-4.958c190.991,117.374,381.363,234.368,572.79,352.011C571.117,319.367,542.322,159.29,486.468,3.332z"
			/>
	</defs>
	<use xlink:href="#SVGID_1_"  overflow="visible" fill="#FFFFFF"/>
	<clipPath id="SVGID_2_">
		<use xlink:href="#SVGID_1_"  overflow="visible"/>
	</clipPath>
</g>
</svg>
